<?xml version="1.0" encoding="UTF-8"?>
<svg xmlns="http://www.w3.org/2000/svg" xmlns:xlink="http://www.w3.org/1999/xlink" viewBox="0 0 281.25 90">
  <defs>
    <linearGradient id="grad-top" x1="29.72" y1="9.8" x2="29.72" y2="57.73" gradientUnits="userSpaceOnUse">
      <stop offset="0" stop-color="#3fae36"/>
      <stop offset="1" stop-color="#0b6c38"/>
    </linearGradient>
    <linearGradient id="grad-bottom" x1="47.21" y1="33.94" x2="47.21" y2="82.34" gradientUnits="userSpaceOnUse">
      <stop offset="0" stop-color="#3fae36"/>
      <stop offset="1" stop-color="#0b6c38"/>
    </linearGradient>
  </defs>

  <!-- 텍스트: SINSUL -->
  <path fill="#8cc31f" d="M70.69,60.85l6.01-6.61c3.08,2.78,6.26,5.42,10.96,5.42,3.43,0,5.66-1.14,5.66-3.03s-1.21-2.78-7.78-4.02c-8.94-1.74-13.08-4.52-13.08-11.32s5.86-10.58,14.6-10.58c7.12,0,11.59,2.6,15.66,5.21l-5.26,7.16c-2.61-1.71-3.89-2.76-8.19-3.72-3.2-.72-6.9.04-6.9,1.78,0,1.84,2.31,3.63,8.58,4.72,9.19,1.54,12.38,3.52,12.38,10.07,0,7.6-6.67,11.47-15.91,11.47-7.32,0-12.88-2.63-16.72-6.55Z"/>
  <path fill="#8cc31f" d="M162.21,60.85l6.01-6.61c3.08,2.78,6.26,5.42,10.96,5.42,3.43,0,5.66-1.14,5.66-3.03s-1.21-2.78-7.78-4.02c-8.94-1.74-13.08-4.52-13.08-11.32s5.86-10.58,14.6-10.58c7.12,0,11.59,2.6,15.66,5.21l-5.26,7.16c-2.61-1.71-3.89-2.76-8.19-3.72-3.2-.72-6.9.04-6.9,1.78,0,1.84,2.31,3.63,8.58,4.72,9.19,1.54,12.38,3.52,12.38,10.07,0,7.6-6.67,11.47-15.91,11.47-7.32,0-12.88-2.63-16.72-6.55Z"/>
  <path fill="#8cc31f" d="M118.32,66.44h-10.7V31.68h10.7v34.76Z"/>
  <path fill="#8cc31f" d="M159.06,66.44h-13.57l-10.96-19.85v19.85h-10.48V31.68h13.72l10.81,19.25v-19.25h10.49v34.76Z"/>
  <path fill="#8cc31f" d="M231.9,52.64c0,8.39-6.15,14.3-16.56,14.3s-16.46-6.01-16.46-14.3v-21.45h10.7v21.35c0,4.52,1.67,5.65,5.81,5.65s5.81-1.33,5.81-5.65v-21.35h10.7v21.45Z"/>
  <path fill="#8cc31f" d="M249.08,57.4h13.8v9.04h-24.5V31.68h10.7v25.71Z"/>

  <!-- 엠블럼 위쪽 원 -->
  <path fill="#8cc31f" d="M38.27,57.97c.74,0,1.47-.04,2.2-.09v-.15c-11.98-.67-21.49-11.14-21.49-23.96s9.51-23.29,21.49-23.96v-.14c-.72-.06-1.46-.09-2.2-.09-14.44,0-26.14,10.83-26.14,24.2s11.7,24.2,26.14,24.2Z"/>
  <path fill="url(#grad-top)" d="M18.98,33.77c0,12.82,9.51,23.29,21.49,23.96V9.8c-11.98.67-21.49,11.14-21.49,23.96Z"/>

  <!-- 엠블럼 아래쪽 원 -->
  <path fill="url(#grad-bottom)" d="M35.23,33.94c-.74,0-1.47.04-2.2.09v.15c11.98.67,21.49,11.14,21.49,23.96s-9.51,23.29-21.49,23.96v.14c.72.06,1.46.09,2.2.09,14.44,0,26.14-10.83,26.14-24.2s-11.7-24.2-26.14-24.2Z"/>
  <path fill="#8cc31f" d="M54.53,58.15c0-12.82-9.51-23.29-21.49-23.96v47.92c11.98-.67,21.49-11.14,21.49-23.96Z"/>
</svg>
